HIERARCHY
ROOT Hips
{
    OFFSET 0.000000 0.000000 0.000000
    CHANNELS 6 Xposition Yposition Zposition Zrotation Xrotation Yrotation
    JOINT Spine
    {
        OFFSET -0.000000 8.267054 0.000000
        CHANNELS 3 Zrotation Xrotation Yrotation
        JOINT Spine1
        {
            OFFSET -0.000000 23.684998 0.000000
            CHANNELS 3 Zrotation Xrotation Yrotation
            JOINT Neck
            {
                OFFSET -0.000000 23.587730 2.144339
                CHANNELS 3 Zrotation Xrotation Yrotation
                JOINT Head
                {
                    OFFSET -0.000000 14.114483 -2.016355
                    CHANNELS 3 Zrotation Xrotation Yrotation
                    End Site
                    {
                        OFFSET -0.000000 25.204432 0.000000
                    }
                }
            }
            JOINT LeftShoulder
            {
                OFFSET 4.070090 22.062094 -0.247321
                CHANNELS 3 Zrotation Xrotation Yrotation
                JOINT LeftArm
                {
                    OFFSET 10.395479 0.000000 0.000000
                    CHANNELS 3 Zrotation Xrotation Yrotation
                    JOINT LeftForeArm
                    {
                        OFFSET 37.713577 0.000000 0.000000
                        CHANNELS 3 Zrotation Xrotation Yrotation
                        JOINT LeftHand
                        {
                            OFFSET 20.284107 0.000000 0.000000
                            CHANNELS 3 Zrotation Xrotation Yrotation
                            End Site
                            {
                                OFFSET 15.122660 0.000000 0.000000
                            }
                        }
                    }
                }
            }
            JOINT RightShoulder
            {
                OFFSET -3.979272 22.062094 -0.247321
                CHANNELS 3 Zrotation Xrotation Yrotation
                JOINT RightArm
                {
                    OFFSET -10.395479 0.000000 0.000000
                    CHANNELS 3 Zrotation Xrotation Yrotation
                    JOINT RightForeArm
                    {
                        OFFSET -37.713577 0.000000 0.000000
                        CHANNELS 3 Zrotation Xrotation Yrotation
                        JOINT RightHand
                        {
                            OFFSET -20.284107 0.000000 0.000000
                            CHANNELS 3 Zrotation Xrotation Yrotation
                            End Site
                            {
                                OFFSET -15.122660 0.000000 0.000000
                            }
                        }
                    }
                }
            }
        }
    }
    JOINT LeftUpLeg
    {
        OFFSET 10.081773 0.000000 0.000000
        CHANNELS 3 Zrotation Xrotation Yrotation
        JOINT LeftLeg
        {
            OFFSET -0.000000 -36.382099 0.000000
            CHANNELS 3 Zrotation Xrotation Yrotation
            JOINT LeftFoot
            {
                OFFSET -0.000000 -49.182560 0.000000
                CHANNELS 3 Zrotation Xrotation Yrotation
                JOINT LeftToeBase
                {
                    OFFSET -0.000000 -6.553152 15.122660
                    CHANNELS 3 Zrotation Xrotation Yrotation
                    End Site
                    {
                        OFFSET -0.000000 0.000000 4.032709
                    }
                }
            }
        }
    }
    JOINT RightUpLeg
    {
        OFFSET -10.081773 0.000000 0.000000
        CHANNELS 3 Zrotation Xrotation Yrotation
        JOINT RightLeg
        {
            OFFSET -0.000000 -36.382099 0.000000
            CHANNELS 3 Zrotation Xrotation Yrotation
            JOINT RightFoot
            {
                OFFSET -0.000000 -49.182560 0.000000
                CHANNELS 3 Zrotation Xrotation Yrotation
                JOINT RightToeBase
                {
                    OFFSET -0.000000 -6.553152 15.122660
                    CHANNELS 3 Zrotation Xrotation Yrotation
                    End Site
                    {
                        OFFSET -0.000000 0.000000 4.032709
                    }
                }
            }
        }
    }
}
MOTION
Frames:    10
Frame Time:    0.008333
-38.609459    92.430305    7.998743    -0.715781    -0.996019    -174.412064    -2.704466    -7.867655    -0.147703    1.660018    -0.666132    0.049300    1.933486    16.920397    -7.905320    4.741507    6.295251    -7.803956    18.273075    -2.746534    -5.315470    -25.194965    9.769768    -3.199704    2.321170    -2.894365    1.985692    -3.834615    -3.084184    4.474208    -16.217823    -0.696067    -6.758317    28.408470    3.361253    4.506013    -3.676136    -1.697819    3.421492    -3.439116    -1.569890    -0.604973    -2.395237    -5.547688    -0.842644    1.580948    14.655126    4.069577    -0.072513    -9.576486    -2.676489    0.000000    0.000000    0.000000    -0.824520    -3.698747    -0.753155    1.563198    12.750350    -1.391006    -2.228008    -8.742723    -9.747944    0.000000    0.000000    0.000000    
-38.604633    92.430222    7.994176    -0.717175    -1.001648    -174.399551    -2.703639    -7.874411    -0.150448    1.656152    -0.662868    0.046185    5.837228    14.063998    -8.230990    0.735903    8.574381    -8.640735    18.275005    -2.750067    -5.321712    -25.195831    9.786242    -3.202674    2.325009    -2.898905    1.969167    -3.834164    -3.088641    4.479570    -16.214251    -0.693333    -6.761743    28.407494    3.371891    4.504237    -3.680507    -1.704887    3.439260    -3.423502    -1.575197    -0.643385    -2.393995    -5.550737    -0.843643    1.581942    14.653541    4.063577    -0.076512    -9.576000    -2.681390    0.000000    0.000000    0.000000    -0.822927    -3.698575    -0.753493    1.569150    12.746881    -1.432576    -2.236145    -8.746643    -9.732928    0.000000    0.000000    0.000000    
-38.599800    92.430176    7.989597    -0.718681    -1.007423    -174.386917    -2.702960    -7.881187    -0.153420    1.652267    -0.659659    0.043199    9.113900    11.603843    -8.354329    -2.668316    10.570403    -9.227952    18.277159    -2.753002    -5.327858    -25.196867    9.802392    -3.206576    2.328849    -2.903245    1.954089    -3.834722    -3.092887    4.483362    -16.210461    -0.691011    -6.765262    28.406197    3.383293    4.501958    -3.685094    -1.712262    3.454832    -3.412848    -1.581191    -0.671145    -2.392926    -5.553893    -0.844344    1.583145    14.651979    4.057012    -0.080528    -9.575474    -2.685689    0.000000    0.000000    0.000000    -0.821508    -3.698408    -0.753387    1.575865    12.742923    -1.478764    -2.244349    -8.750121    -9.715433    0.000000    0.000000    0.000000    
-38.594948    92.430153    7.985009    -0.720357    -1.013337    -174.374222    -2.702639    -7.887929    -0.156689    1.648714    -0.656498    0.040381    11.570221    9.734152    -8.358466    -5.238687    12.103395    -9.595735    18.279652    -2.754999    -5.333742    -25.198214    9.818569    -3.211606    2.332515    -2.907287    1.940402    -3.836934    -3.096866    4.485300    -16.207174    -0.689092    -6.769190    28.405163    3.396250    4.499487    -3.690370    -1.719586    3.467152    -3.409595    -1.587607    -0.683516    -2.391958    -5.557294    -0.844744    1.584283    14.650688    4.049925    -0.084465    -9.575047    -2.689106    0.000000    0.000000    0.000000    -0.820283    -3.698286    -0.753356    1.583763    12.738315    -1.532837    -2.252978    -8.753218    -9.693357    0.000000    0.000000    0.000000    
-38.590130    92.430183    7.980557    -0.722213    -1.019413    -174.362030    -2.702858    -7.894390    -0.160363    1.645962    -0.653776    0.038116    13.352679    8.372131    -8.317931    -7.107190    13.221683    -9.825867    18.281916    -2.756010    -5.339239    -25.199806    9.833946    -3.217160    2.336141    -2.911002    1.927064    -3.840101    -3.100513    4.486370    -16.204161    -0.687951    -6.773792    28.404030    3.411008    4.497272    -3.696901    -1.725759    3.476365    -3.414346    -1.593317    -0.681547    -2.391108    -5.561213    -0.844766    1.585249    14.649911    4.041547    -0.088040    -9.574313    -2.690758    0.000000    0.000000    0.000000    -0.819214    -3.698532    -0.753497    1.589420    12.734207    -1.573838    -2.259404    -8.756067    -9.677461    0.000000    0.000000    0.000000    
-38.585350    92.430237    7.976286    -0.724184    -1.025583    -174.350647    -2.703484    -7.900375    -0.162489    1.643965    -0.651808    0.034572    14.629984    7.400581    -8.271376    -8.440897    14.011395    -9.976665    18.283968    -2.756021    -5.344233    -25.201717    9.847489    -3.222934    2.339551    -2.913780    1.913467    -3.843335    -3.103243    4.487388    -16.200153    -0.686777    -6.779756    28.401249    3.427082    4.496703    -3.704753    -1.731640    3.484280    -3.424748    -1.598897    -0.672180    -2.390379    -5.565654    -0.844225    1.586257    14.649714    4.031925    -0.091503    -9.573352    -2.691220    0.000000    0.000000    0.000000    -0.818196    -3.699189    -0.753850    1.589497    12.731739    -1.580835    -2.261054    -8.758961    -9.678617    0.000000    0.000000    0.000000    
-38.580452    92.430267    7.971959    -0.726334    -1.031752    -174.339630    -2.704571    -7.905891    -0.164806    1.642745    -0.650308    0.031109    15.567455    6.698066    -8.234336    -9.408237    14.565964    -10.086919    18.286232    -2.755171    -5.348769    -25.204536    9.859332    -3.228890    2.343282    -2.916492    1.898697    -3.845268    -3.105850    4.489106    -16.195250    -0.685662    -6.787092    28.397257    3.444927    4.497581    -3.715000    -1.739985    3.493087    -3.437334    -1.606825    -0.663517    -2.389835    -5.570360    -0.843313    1.587462    14.650064    4.021627    -0.094899    -9.572289    -2.691109    0.000000    0.000000    0.000000    -0.817275    -3.699691    -0.754172    1.588037    12.729334    -1.577301    -2.261546    -8.761905    -9.685351    0.000000    0.000000    0.000000    
-38.575596    92.430283    7.967693    -0.728394    -1.037454    -174.329651    -2.705989    -7.910699    -0.167356    1.642780    -0.649064    0.027932    16.213354    6.229304    -8.215282    -10.058762    14.911445    -10.171729    18.287680    -2.753886    -5.352434    -25.207455    9.868948    -3.234519    2.346709    -2.918653    1.883432    -3.844753    -3.107827    4.491749    -16.191998    -0.684854    -6.794683    28.395338    3.463347    4.499061    -3.729084    -1.752609    3.502193    -3.451080    -1.618841    -0.657321    -2.389344    -5.574826    -0.841641    1.588996    14.650722    4.011321    -0.098122    -9.571122    -2.690815    0.000000    0.000000    0.000000    -0.816279    -3.699757    -0.754309    1.588609    12.726113    -1.585446    -2.264190    -8.764498    -9.685778    0.000000    0.000000    0.000000    
-38.570618    92.430237    7.963376    -0.730310    -1.042782    -174.320648    -2.707420    -7.914884    -0.173346    1.643697    -0.647982    0.028063    16.657602    5.929924    -8.217071    -10.482611    15.094356    -10.247781    18.288471    -2.752256    -5.355299    -25.210579    9.877123    -3.239597    2.350345    -2.921409    1.867394    -3.840864    -3.110273    4.495172    -16.190744    -0.684287    -6.801800    28.394997    3.480876    4.500842    -3.744776    -1.766781    3.510595    -3.465458    -1.632391    -0.651679    -2.388499    -5.579026    -0.839873    1.590323    14.651718    4.001215    -0.101247    -9.570350    -2.690201    0.000000    0.000000    0.000000    -0.814967    -3.699550    -0.754610    1.590896    12.722373    -1.605179    -2.268882    -8.767085    -9.679458    0.000000    0.000000    0.000000    
-38.565617    92.430099    7.959086    -0.731949    -1.047514    -174.312958    -2.708510    -7.918365    -0.173504    1.644977    -0.647164    0.022291    16.933805    5.780580    -8.244278    -10.708843    15.121661    -10.325015    18.288616    -2.751129    -5.357520    -25.213717    9.883985    -3.243287    2.353860    -2.924641    1.851561    -3.833787    -3.113049    4.498238    -16.190937    -0.683678    -6.807998    28.392376    3.492780    4.503623    -3.754434    -1.774510    3.517419    -3.475342    -1.639686    -0.647079    -2.387397    -5.582716    -0.837155    1.591938    14.652955    3.991574    -0.104883    -9.570000    -2.689975    0.000000    0.000000    0.000000    -0.813249    -3.699064    -0.755069    1.594971    12.718246    -1.637525    -2.275406    -8.769652    -9.665339    0.000000    0.000000    0.000000    
